# xmcd
# 
# Track frame offsets:
#     150
#     29837
#     46233
#     63676
#     77882
#     90753
#     121355
#     146632
# 
# Disc length: 2250
# 
# Revision: 0
# Processed by: cddbd v1.5.2PL0 Copyright (c) Steve Scherf et al.
# Submitted via: fre:ac v1.0.31
# 
DISCID=6b08c808
DTITLE=Harvey Mandel - Games Guitars Play - Snake Box CD3
DYEAR=2015
DGENRE=Blues
TTITLE0=Leavin' Trunk
TTITLE1=Honky Tonk
TTITLE2=I Don't Need No Doctor
TTITLE3=Dry Your Eyes
TTITLE4=Ridin' High
TTITLE5=Capurange
TTITLE6=Senor Blues
TTITLE7=Games People Play
EXTD=
EXTT0=
EXTT1=
EXTT2=
EXTT3=
EXTT4=
EXTT5=
EXTT6=
EXTT7=
PLAYORDER=
